<?xml version="1.0" encoding="UTF-8"?><svg id="Layer_1" xmlns="http://www.w3.org/2000/svg" viewBox="0 0 100 100"><defs><style>.cls-1{fill:#5c7d96;}.cls-2{fill:#f7f7f7;}</style></defs><rect class="cls-2" x="18.9" y="12.55" width="73.38" height="64.33" rx="6.77" ry="6.77"/><path class="cls-1" d="M63.81,72.68l-.78-4.85c-.22-.88-1.02-2.28-1.68-2.94l-29.43-29.15c-.14-.14-.33-.21-.52-.21s-.38.07-.52.21l-5.21,5.16c-.14.14-.21.32-.21.51s.08.37.21.51l29.44,29.15c.67.66,2.06,1.44,2.97,1.66h.06s4.83.77,4.83.77c.21.03.47-.04.63-.2.16-.16.24-.39.2-.62h0ZM27.22,41.41l4.18-4.14,4.29,4.25-4.18,4.14-4.29-4.25ZM58.38,71.32c-.65-.18-1.78-.82-2.23-1.27l-23.6-23.37,4.18-4.14,23.6,23.37c.46.45,1.1,1.57,1.28,2.22l.61,3.8-3.83-.6Z"/><path class="cls-1" d="M18.34,79.43h25.73c.3,0,.56-.17.68-.45.11-.27.05-.57-.16-.78l-25.73-25.43c-.14-.14-.33-.21-.52-.21-.09,0-.19.02-.28.06-.27.11-.45.37-.45.66v25.43c0,.4.33.72.73.72ZM19.07,55.02l23.25,22.97h-23.25v-22.97Z"/><path class="cls-1" d="M8.96,34.1c-.14-.14-.33-.21-.52-.21-.09,0-.19.02-.28.06-.27.11-.45.37-.45.66v52.12c0,.4.33.72.73.72h52.75c.3,0,.56-.17.67-.45.11-.27.05-.57-.16-.78L8.96,34.1ZM9.18,86.01v-5.29h4.36c.4,0,.73-.32.73-.72s-.33-.72-.73-.72h-4.36v-6.19h2.59c.4,0,.73-.32.73-.72s-.33-.72-.73-.72h-2.59v-6.19h4.36c.4,0,.73-.32.73-.72s-.33-.72-.73-.72h-4.36v-6.19h2.59c.4,0,.73-.32.73-.72s-.33-.72-.73-.72h-2.59v-6.19h4.36c.4,0,.73-.32.73-.72s-.33-.72-.73-.72h-4.36v-12.41l50.26,49.66H9.18Z"/></svg>