<?xml version="1.0" encoding="UTF-8"?><svg id="Layer_1" xmlns="http://www.w3.org/2000/svg" viewBox="0 0 100 100"><defs><style>.cls-1{fill:none;stroke:#fff;stroke-miterlimit:10;stroke-width:.13px;}.cls-2{fill:#5c7d96;}.cls-3{fill:#f7f7f7;}</style></defs><rect class="cls-3" x="23.64" y="9.29" width="73.38" height="64.33" rx="6.77" ry="6.77"/><path class="cls-2" d="M25.93,70.8c-2.17.12-4.36.39-6.5.77-4.13.73-11.32,2.55-14.05,5.88-3.28,3.99,2.09,7.06,5.24,8.39,8.63,3.63,20.98,4.09,30.18,2.93,4.84-.61,13.79-2.45,17.04-6.3,3.72-4.4-3.21-7.74-6.51-8.94-4.44-1.61-9.28-2.36-13.98-2.73l-5.14,11.09c-.24.39-.76.42-1.09.12l-5.18-11.19ZM31.68,79.81l6.54-14.13c5.11-1.76,9.45-4.98,12.29-9.6,9.67-15.71-2.98-35.67-21.25-33.74-18,1.9-26.29,23.68-14.02,37.09,2.68,2.93,6.06,4.91,9.78,6.25l6.52,14.05.14.08ZM37.99,69.46c4.53.36,9.19,1.12,13.47,2.65,3.82,1.37,10.9,4.89,8.2,10.03-2.28,4.34-10.6,6.58-15.1,7.42-8.3,1.55-17.97,1.52-26.26-.07-4.42-.85-12.87-3.18-14.88-7.64-2.23-4.97,4.47-8.33,8.16-9.68,4.33-1.58,9.07-2.34,13.66-2.71l-1.23-2.72c-14.66-5-20.7-22.76-11.82-35.66,8.99-13.07,28.11-13.71,37.93-1.24,10.09,12.81,4.35,31.7-10.91,36.9l-1.23,2.72Z"/><path class="cls-1" d="M25.93,70.8c-2.17.12-4.36.39-6.5.77-4.13.73-11.32,2.55-14.05,5.88-3.28,3.99,2.09,7.06,5.24,8.39,8.63,3.63,20.98,4.09,30.18,2.93,4.84-.61,13.79-2.45,17.04-6.3,3.72-4.4-3.21-7.74-6.51-8.94-4.44-1.61-9.28-2.36-13.98-2.73l-5.14,11.09c-.24.39-.76.42-1.09.12l-5.18-11.19ZM31.68,79.81l6.54-14.13c5.11-1.76,9.45-4.98,12.29-9.6,9.67-15.71-2.98-35.67-21.25-33.74-18,1.9-26.29,23.68-14.02,37.09,2.68,2.93,6.06,4.91,9.78,6.25l6.52,14.05.14.08ZM37.99,69.46c4.53.36,9.19,1.12,13.47,2.65,3.82,1.37,10.9,4.89,8.2,10.03-2.28,4.34-10.6,6.58-15.1,7.42-8.3,1.55-17.97,1.52-26.26-.07-4.42-.85-12.87-3.18-14.88-7.64-2.23-4.97,4.47-8.33,8.16-9.68,4.33-1.58,9.07-2.34,13.66-2.71l-1.23-2.72c-14.66-5-20.7-22.76-11.82-35.66,8.99-13.07,28.11-13.71,37.93-1.24,10.09,12.81,4.35,31.7-10.91,36.9l-1.23,2.72Z"/><path class="cls-2" d="M30.91,31.63c-9.65.59-14.97,11.57-9.31,19.5,5.53,7.75,17.47,6.49,21.31-2.21,3.7-8.39-2.86-17.85-11.99-17.29M31.35,30.24c10.79-.17,17.66,11.7,11.9,20.92-5.17,8.29-17.11,8.69-22.79.72-6.38-8.95-.04-21.47,10.89-21.64"/><path class="cls-1" d="M30.91,31.63c-9.65.59-14.97,11.57-9.31,19.5,5.53,7.75,17.47,6.49,21.31-2.21,3.7-8.39-2.86-17.85-11.99-17.29ZM31.35,30.24c10.79-.17,17.66,11.7,11.9,20.92-5.17,8.29-17.11,8.69-22.79.72-6.38-8.95-.04-21.47,10.89-21.64Z"/></svg>